<?xml version="1.0" encoding="UTF-8" standalone="no"?>
<svg
   xmlns:dc="http://purl.org/dc/elements/1.1/"
   xmlns:cc="http://creativecommons.org/ns#"
   xmlns:rdf="http://www.w3.org/1999/02/22-rdf-syntax-ns#"
   xmlns:svg="http://www.w3.org/2000/svg"
   xmlns="http://www.w3.org/2000/svg"
   id="svg4496"
   version="1.1"
   viewBox="0 0 1484.1199 741.29871"
   height="741.29871mm"
   width="1484.1199mm">
  <defs
     id="defs4490">
    <filter
       height="1.042515"
       y="-0.021257512"
       width="1.016719"
       x="-0.0083594937"
       id="filter5080"
       style="color-interpolation-filters:sRGB">
      <feGaussianBlur
         id="feGaussianBlur5082"
         stdDeviation="3.4203612" />
    </filter>
    <filter
       height="1.1030437"
       y="-0.051521864"
       width="1.0376971"
       x="-0.018848531"
       id="filter5127"
       style="color-interpolation-filters:sRGB">
      <feGaussianBlur
         id="feGaussianBlur5129"
         stdDeviation="28.032304" />
    </filter>
    <clipPath
       id="clipPath5137"
       clipPathUnits="userSpaceOnUse">
      <path
         style="fill:#db2020;fill-opacity:1;fill-rule:evenodd;stroke:none;stroke-width:0.99999994px;stroke-linecap:butt;stroke-linejoin:miter;stroke-opacity:1"
         d="m -2302.9718,-387.33687 c 176.2478,-129.24844 555.89,-68.40205 787.2403,-5.87493 217.3724,58.74927 395.3402,119.22932 628.61734,35.24955 293.74639,-105.74871 446.49456,-99.87378 975.238106,-17.62477 C 355.5375,-333.98936 415.74275,-575.19701 928.23867,-469.5859 1482.2101,-355.42781 1205.536,-38.011121 1157.3608,117.90692 1095.126,319.32881 1160.7267,441.43224 939.98851,793.52369 773.9223,1058.4099 301.67565,771.08758 -211.4974,899.27241 c -497.97081,124.38749 -902.999,36.46655 -1327.7338,-11.74983 -164.3836,-18.661 -730.4035,-23.02987 -787.2404,-258.49689 -41.1245,-170.37291 -252.2939,-814.11378 23.4998,-1016.36256 z"
         id="path5139" />
    </clipPath>
  </defs>
  <metadata
     id="metadata4493">
    <rdf:RDF>
      <cc:Work
         rdf:about="">
        <dc:format>image/svg+xml</dc:format>
        <dc:type
           rdf:resource="http://purl.org/dc/dcmitype/StillImage" />
        <dc:title></dc:title>
      </cc:Work>
    </rdf:RDF>
  </metadata>
  <g
     transform="translate(653.38913,278.48709)"
     id="layer1">
    <path
       transform="matrix(1.4864996,0,0,1.8413661,317.87355,-23.388499)"
       style="opacity:1;fill:#093630;fill-opacity:1;fill-rule:evenodd;stroke:none;stroke-width:0.26458332px;stroke-linecap:butt;stroke-linejoin:miter;stroke-opacity:1;filter:url(#filter5080)"
       d="m -608.26961,-101.42454 c 46.63223,-34.19698 147.07922,-18.09804 208.29067,-1.55441 57.51309,15.544074 104.60041,31.546085 166.32166,9.326439 77.7204,-27.979339 118.13502,-26.424929 258.031741,-4.663221 70.75317,11.006047 86.682479,-52.813468 222.280359,-24.870528 146.57161,30.204319 73.36825,114.1874844 60.6219,155.440801 -16.4663,53.292875 0.89055,85.599409 -57.51309,178.756939 -43.93835,70.08447 -168.886946,-5.93622 -304.663983,27.97935 -131.754767,32.91086 -238.918487,9.64844 -351.296237,-3.10881 -43.49315,-4.93739 -193.25259,-6.09332 -208.29068,-68.39397 -10.88086,-45.07783 -66.75277,-215.400941 6.21766,-268.91259 z"
       id="path5058" />
    <path
       id="path5041"
       d="m -587.8922,-212.097 c 69.31879,-62.96917 218.6332,-33.32512 309.62399,-2.86224 85.49319,28.62234 155.48847,58.0879 247.237085,17.1734 115.531343,-51.52022 175.607655,-48.65798 383.564085,-8.5867 105.17456,20.26617 128.85346,-97.24894 330.41966,-45.79576 217.87864,55.61723 109.06187,210.260981 90.11443,286.223438 -24.47715,98.131692 1.3238,157.619842 -85.49319,329.156962 -65.31434,129.05117 -251.05036,-10.93076 -452.88288,51.52022 -195.853413,60.60094 -355.15224,17.76632 -522.20172,-5.72445 -64.65255,-9.09155 -287.2699,-11.22004 -309.62401,-125.93834 -16.1744,-83.00479 -99.22797,-396.63198 9.24255,-495.16653 z"
       style="fill:#147a6c;fill-opacity:1;fill-rule:evenodd;stroke:none;stroke-width:0.43773869px;stroke-linecap:butt;stroke-linejoin:miter;stroke-opacity:1" />
    <path
       clip-path="url(#clipPath5137)"
       id="path5084"
       transform="matrix(0.39330301,0,0,0.48719477,317.87355,-23.388499)"
       d="m 1213.2754,-342.87305 c 101.4979,141.94364 -42.4231,328.386279 -75.9141,436.7793 -62.2348,201.42189 3.3651,323.52574 -217.37302,675.61719 -166.0662,264.88616 -638.31327,-22.43679 -1151.48633,105.74804 -497.97091,124.38751 -902.99765,36.46638 -1327.73245,-11.75 -143.0012,-16.23365 -589.933,-21.65875 -741.205,-177.80859 126.8397,179.64828 611.2125,184.78323 761.205,201.81055 424.7348,48.21638 829.76166,136.13556 1327.73245,11.74804 C 301.67501,771.08665 773.92208,1058.4096 939.98828,793.52344 1160.7264,441.43199 1095.1265,319.32814 1157.3613,117.90625 c 35.4153,-114.6207693 194.3076,-316.51548 55.9141,-460.7793 z"
       style="opacity:1;fill:#b8f4eb;fill-opacity:0.80476188;fill-rule:evenodd;stroke:none;stroke-width:0.99999994px;stroke-linecap:butt;stroke-linejoin:miter;stroke-opacity:1;filter:url(#filter5127)" />
  </g>
</svg>
